<?xml version="1.0" encoding="UTF-8"?>
<svg xmlns="http://www.w3.org/2000/svg" xmlns:xlink="http://www.w3.org/1999/xlink" viewBox="0 0 800 800">
  <defs>
    <style>
      .uuid-1bbb1e0e-d8ed-43b6-a1e5-bfa30be31f3d {
        fill: url(#uuid-cd9921a2-b6a8-4744-b26b-638906c4e05e);
        mix-blend-mode: multiply;
      }

      .uuid-1bbb1e0e-d8ed-43b6-a1e5-bfa30be31f3d, .uuid-311f30da-0d75-476d-b35a-bcd145ee3aa0, .uuid-df0fbc50-b105-4332-b2a7-7b7df7d20873, .uuid-111a927d-c64e-4b37-864c-a83d93f7ae4a, .uuid-251e1a71-a778-4130-a5ea-e16216aa663a {
        stroke-width: 0px;
      }

      .uuid-68862069-2ac3-4c78-bc9f-f5e9453facc1 {
        mask: url(#uuid-582ce8a8-6fc1-4ebf-ad06-40b317eb7ef8);
      }

      .uuid-311f30da-0d75-476d-b35a-bcd145ee3aa0 {
        fill: url(#uuid-595de663-e870-431f-b76b-e5fb365cf05c);
      }

      .uuid-eb825970-9def-47d9-a9ea-12cedc64b7fc {
        filter: url(#uuid-b34ca407-78e2-404a-bf39-c4cf99bc1d8e);
      }

      .uuid-df0fbc50-b105-4332-b2a7-7b7df7d20873 {
        fill: #27aae1;
      }

      .uuid-111a927d-c64e-4b37-864c-a83d93f7ae4a {
        fill: #fff;
      }

      .uuid-58fae590-87eb-44fd-958b-0cde7e3b4f87 {
        mask: url(#uuid-538a71a8-9dd0-45a5-9f88-f700cc3640e7);
      }

      .uuid-251e1a71-a778-4130-a5ea-e16216aa663a {
        fill: #084377;
      }
    </style>
    <filter id="uuid-b34ca407-78e2-404a-bf39-c4cf99bc1d8e" x="219.33" y="545.71" width="348" height="68" color-interpolation-filters="sRGB" filterUnits="userSpaceOnUse">
      <feFlood flood-color="#fff" result="bg"/>
      <feBlend in="SourceGraphic" in2="bg"/>
    </filter>
    <filter id="uuid-ab6a4367-c652-41b5-a59e-c78200c83bdc" x="219.33" y="-8592" width="348" height="32766" color-interpolation-filters="sRGB" filterUnits="userSpaceOnUse">
      <feFlood flood-color="#fff" result="bg"/>
      <feBlend in="SourceGraphic" in2="bg"/>
    </filter>
    <mask id="uuid-538a71a8-9dd0-45a5-9f88-f700cc3640e7" data-name="mask-1" x="219.33" y="-8592" width="348" height="32766" maskUnits="userSpaceOnUse"/>
    <radialGradient id="uuid-cd9921a2-b6a8-4744-b26b-638906c4e05e" cx="393.33" cy="-981.99" fx="393.33" fy="-981.99" r="174" gradientTransform="translate(0 771.59) scale(1 .2)" gradientUnits="userSpaceOnUse">
      <stop offset="0" stop-color="#fff"/>
      <stop offset="1" stop-color="#000"/>
    </radialGradient>
    <mask id="uuid-582ce8a8-6fc1-4ebf-ad06-40b317eb7ef8" data-name="mask" x="219.33" y="545.71" width="348" height="68" maskUnits="userSpaceOnUse">
      <g class="uuid-eb825970-9def-47d9-a9ea-12cedc64b7fc">
        <g class="uuid-58fae590-87eb-44fd-958b-0cde7e3b4f87">
          <ellipse class="uuid-1bbb1e0e-d8ed-43b6-a1e5-bfa30be31f3d" cx="393.33" cy="579.71" rx="174" ry="34"/>
        </g>
      </g>
    </mask>
    <radialGradient id="uuid-595de663-e870-431f-b76b-e5fb365cf05c" cx="393.33" cy="-981.99" fx="393.33" fy="-981.99" r="174" gradientTransform="translate(0 771.59) scale(1 .2)" gradientUnits="userSpaceOnUse">
      <stop offset="0" stop-color="#231f20"/>
      <stop offset="1" stop-color="#fff"/>
    </radialGradient>
  </defs>
  <g id="uuid-096f2ac2-8136-4fb1-8448-2e541d83bed1" data-name="Layer 1">
    <rect class="uuid-111a927d-c64e-4b37-864c-a83d93f7ae4a" width="800" height="800"/>
  </g>
  <g id="uuid-e708dfe1-cf04-465b-a500-167caa241aaa" data-name="Layer 2">
    <g>
      <g>
        <path class="uuid-251e1a71-a778-4130-a5ea-e16216aa663a" d="m313.74,267.89c4.8-11.38-.94-24.56-12.6-28.62-.08-.03-.16-.05-.23-.08-10.09-3.44-20.79-5.61-31.88-6.23-.39-.02-.79-.04-1.18-.05-1.85-.08-3.7-.13-5.57-.13-65.62,0-118.78,53.2-118.78,118.79,0,45.19,25.22,84.48,62.38,104.56,4.57,2.47,9.32,4.65,14.23,6.51,13.08,4.99,27.3,7.71,42.17,7.71,16.29,0,31.81-3.27,45.93-9.19,16.18,29.33,45.1,50.64,79.33,56.43h.03c6.1.99,12.36,1.55,18.73,1.55,2.18,0,4.35-.06,6.5-.2,27.08-1.54,51.54-12.73,70.08-30.17h.01c.09-.08.17-.16.26-.24-3.81.6-7.67,1.06-11.57,1.37-.06,0-.12,0-.19.01-4.15.34-8.36.51-12.58.51-1.82,0-3.63-.03-5.44-.1-3.93-.13-7.83-.41-11.68-.83-39.18-4.23-73.98-22.93-98.91-50.61-10.23-11.29-18.77-24.1-25.27-38.04-6.3,7.09-13.98,12.94-22.59,17.18-9.85,4.85-20.93,7.57-32.64,7.57-38.52,0-70.13-29.4-73.68-66.93v-.04c1-15.21,4.2-29.88,9.26-43.55t.04-.07s.03-.03.03-.07c12.74-22.34,36.77-37.39,64.35-37.39,8.06,0,15.81,1.28,23.07,3.69v.03c.07.02.15.05.22.07,11.14,3.66,23.27-1.63,27.76-12.46.13-.33.27-.65.41-.97Z"/>
        <path class="uuid-df0fbc50-b105-4332-b2a7-7b7df7d20873" d="m656.5,351.56c0-42.63-22.48-80.05-56.23-101.01-5.56-3.45-11.43-6.45-17.55-8.96-13.88-5.68-29.06-8.82-45-8.82s-31.26,3.17-45.17,8.89c-16.77-28.61-45.9-49.1-80.05-54.16-5.37-.79-10.92-1.21-16.53-1.21-1.8,0-3.59.04-5.37.13-26.94,1.27-51.35,12.07-70,29.06h-.01s-.08.07-.12.11c5.14-.76,10.37-1.28,15.68-1.54l.6-.03s.09-.01.14-.01c2.37-.11,4.76-.17,7.16-.17s4.69.05,7.02.16c-.04.02-.07.05-.1.09,48.74,2.4,91.72,26.93,119.29,63.83.06.08.11.15.17.23.13.17.25.34.37.51,4.98,6.92,9.41,14.27,13.21,21.98,0,0,0,0,0,0,6.46-6.86,14.28-12.47,23-16.43,9.78-4.51,20.76-6.9,32.29-6.66,40.38.84,72.91,34.52,72.43,74.9-.47,40.45-33.44,73.13-74.01,73.13-7.16,0-14.05-1-20.59-2.93-.08-.02-.15-.04-.23-.07-10.86-3.14-22.24,2.35-26.49,12.83-.31.76-.63,1.52-.95,2.28-4.64,10.93,1.13,23.6,12.46,27.17.08.02.15.05.23.07,10.57,3.31,21.8,5.17,33.43,5.37.73.04,1.42.04,2.14.04.3,0,.61,0,.91-.01,65.17-.48,117.87-53.49,117.87-118.77Z"/>
      </g>
      <g class="uuid-68862069-2ac3-4c78-bc9f-f5e9453facc1">
        <ellipse class="uuid-311f30da-0d75-476d-b35a-bcd145ee3aa0" cx="393.33" cy="579.71" rx="174" ry="34"/>
      </g>
    </g>
  </g>
</svg>